<?xml version="1.0" encoding="utf-8"?>
<!-- Generator: Adobe Illustrator 23.0.5, SVG Export Plug-In . SVG Version: 6.00 Build 0)  -->
<svg version="1.1" id="Layer_1" xmlns="http://www.w3.org/2000/svg" xmlns:xlink="http://www.w3.org/1999/xlink" x="0px" y="0px"
	 viewBox="0 0 1920 1080" style="enable-background:new 0 0 1920 1080;" xml:space="preserve">
<style type="text/css">
	.st0{fill:none;stroke:#000000;stroke-width:18;stroke-miterlimit:10;}
</style>
<g>
	<path class="st0" d="M174.27,200.2c1.54-2.09,3.03-3.53,4.57-4.67c1.16-0.85,2.35-1.53,3.65-2.11c1.94-0.86,4.14-1.49,6.62-1.89
		c2.48-0.4,5.22-0.58,8.09-0.57c2.95,0,6.02,0.18,9.13,0.39c1.56,0.1,3.13,0.22,4.74,0.31c1.61,0.09,3.24,0.16,4.99,0.16
		c9.91,0,17.95-8.04,17.95-17.95c0-9.91-8.04-17.95-17.95-17.95c-0.7,0-1.73-0.03-2.98-0.11c-1.87-0.1-4.24-0.28-6.92-0.45
		c-2.69-0.16-5.7-0.3-8.96-0.3c-3.35,0-6.96,0.15-10.78,0.61c-3.34,0.4-6.83,1.04-10.4,2.04c-3.13,0.88-6.32,2.04-9.5,3.55
		c-5.56,2.64-11.06,6.43-15.9,11.43c-3.63,3.74-6.89,8.13-9.67,13.11c-4.18,7.47-7.29,16.21-9.37,26.35
		c-2.08,10.15-3.16,21.74-3.16,35.18c0,0.3,0,0.59,0,0.89v0c0.05,14.69,0.73,32.36,1.38,52.03c0.65,19.66,1.28,41.3,1.28,63.67
		c0,27.24-0.94,55.57-3.87,82.57c-2.19,20.25-5.51,39.74-10.29,57.4c-3.58,13.25-7.97,25.45-13.23,36.18
		c-3.94,8.05-8.36,15.27-13.24,21.54c-3.67,4.71-7.59,8.89-11.8,12.54c-6.32,5.48-13.27,9.78-21.19,12.93
		c-7.93,3.14-16.87,5.12-27.28,5.64c-9.5,0.47-16.88,8.24-17.04,17.61c0,0,0,0.01,0,0.01c-0.01,0.2,0,0.4,0,0.6
		c0,0.2-0.01,0.4,0,0.6c0,0,0,0.01,0,0.01c0.16,9.37,7.55,17.14,17.04,17.61c10.97,0.55,20.31,2.72,28.55,6.16
		c7.21,3.02,13.6,7.02,19.46,12.01c5.12,4.37,9.82,9.52,14.15,15.43c7.57,10.34,13.94,23.06,19.11,37.59
		c7.77,21.78,12.77,47.54,15.72,74.65c2.96,27.12,3.92,55.59,3.91,82.96c0,22.37-0.63,44.01-1.28,63.67
		c-0.65,19.68-1.32,37.34-1.38,52.03c0,0.29,0,0.59,0,0.89c0.01,17.83,1.88,32.42,5.53,44.68c2.74,9.18,6.54,17.07,11.35,23.64
		c3.6,4.92,7.77,9.07,12.23,12.36c3.35,2.47,6.85,4.46,10.35,6.02c5.26,2.34,10.52,3.73,15.46,4.53c4.95,0.8,9.62,1.04,13.85,1.04
		c4.35,0,8.26-0.25,11.53-0.47c1.63-0.11,3.1-0.21,4.35-0.28c1.25-0.07,2.28-0.11,2.98-0.11c9.91,0,17.95-8.04,17.95-17.95
		c0-9.91-8.04-17.95-17.95-17.95v0c-1.74,0-3.38,0.07-4.99,0.16c-2.41,0.14-4.74,0.32-7.06,0.45c-2.31,0.14-4.6,0.24-6.81,0.24
		c-2.27,0-4.46-0.1-6.5-0.35c-1.79-0.21-3.46-0.53-4.99-0.96c-1.34-0.38-2.58-0.83-3.73-1.38c-2.02-0.97-3.8-2.19-5.61-4.04
		c-1.35-1.4-2.73-3.18-4.1-5.62c-2.05-3.65-4.06-8.83-5.54-16.05c-1.49-7.22-2.43-16.45-2.42-27.96c0-0.25,0-0.5,0-0.76
		c0.05-13.71,0.7-31.22,1.36-50.98c0.65-19.77,1.3-41.82,1.3-64.86c0-28.07-0.96-57.6-4.08-86.44c-2.35-21.63-5.91-42.88-11.32-62.9
		c-4.06-15.01-9.15-29.34-15.64-42.6c-4.87-9.94-10.53-19.29-17.16-27.81c-4.97-6.39-10.49-12.31-16.61-17.61
		c-4.05-3.51-8.38-6.74-12.95-9.66c4.32-2.76,8.42-5.79,12.27-9.08c7.46-6.36,14.03-13.63,19.82-21.55
		c10.13-13.87,17.88-29.72,23.95-46.74c9.08-25.54,14.42-53.82,17.59-82.79c3.16-28.97,4.13-58.66,4.13-86.86
		c0-23.04-0.65-45.09-1.3-64.86c-0.65-19.76-1.31-37.27-1.36-50.98v0c0-0.25,0-0.51,0-0.76c-0.01-15.28,1.66-26.53,4.03-34.41
		C170.12,206.99,172.23,202.98,174.27,200.2z"/>
	<path class="st0" d="M1909.77,613.23c0-0.2,0.01-0.39,0-0.59c0,0,0-0.01,0-0.01c-0.16-9.37-7.55-17.14-17.04-17.61
		c-10.97-0.55-20.31-2.72-28.55-6.16c-7.21-3.02-13.6-7.02-19.46-12.01c-5.12-4.37-9.82-9.52-14.15-15.43
		c-7.57-10.34-13.94-23.06-19.11-37.59c-7.77-21.78-12.77-47.54-15.72-74.65c-2.96-27.12-3.92-55.59-3.91-82.96
		c0-22.37,0.63-44.01,1.28-63.67c0.65-19.68,1.32-37.34,1.38-52.03v-0.02c0-0.29,0-0.58,0-0.87c-0.01-17.83-1.88-32.42-5.53-44.68
		c-2.74-9.18-6.54-17.07-11.35-23.64c-3.6-4.92-7.77-9.07-12.23-12.36c-3.35-2.47-6.85-4.46-10.35-6.02
		c-5.26-2.34-10.52-3.73-15.46-4.53c-4.95-0.8-9.62-1.04-13.85-1.04c-4.35,0-8.26,0.25-11.53,0.47c-1.63,0.11-3.1,0.21-4.35,0.28
		c-1.25,0.07-2.28,0.11-2.98,0.11c-9.91,0-17.95,8.04-17.95,17.95c0,9.91,8.04,17.95,17.95,17.95v0c1.74,0,3.38-0.07,4.99-0.16
		c2.41-0.14,4.74-0.32,7.06-0.45c2.31-0.14,4.6-0.24,6.81-0.24c2.27,0,4.46,0.1,6.5,0.35c1.79,0.21,3.46,0.53,4.99,0.96
		c1.34,0.38,2.58,0.83,3.73,1.38c2.02,0.97,3.8,2.18,5.61,4.04c1.35,1.4,2.73,3.18,4.1,5.62c2.05,3.65,4.06,8.83,5.54,16.05
		c1.49,7.22,2.43,16.45,2.42,27.96c0,0.25,0,0.51,0,0.78v-0.02c-0.05,13.7-0.7,31.22-1.36,50.97c-0.65,19.77-1.3,41.82-1.3,64.86
		c0,28.07,0.96,57.6,4.08,86.44c2.35,21.63,5.91,42.88,11.32,62.9c4.06,15.01,9.15,29.34,15.64,42.6
		c4.87,9.94,10.53,19.29,17.16,27.81c4.97,6.39,10.49,12.31,16.61,17.61c4.05,3.51,8.38,6.74,12.95,9.66
		c-4.32,2.76-8.42,5.79-12.27,9.08c-7.46,6.36-14.03,13.63-19.82,21.55c-10.13,13.87-17.88,29.72-23.95,46.74
		c-9.08,25.54-14.42,53.82-17.59,82.79c-3.16,28.97-4.13,58.66-4.13,86.86c0,23.04,0.65,45.09,1.3,64.86
		c0.65,19.76,1.31,37.27,1.36,50.97v-0.02c0,0.26,0,0.52,0,0.78c0.01,15.28-1.66,26.53-4.03,34.41c-1.77,5.93-3.88,9.93-5.92,12.72
		c-1.54,2.09-3.03,3.53-4.57,4.67c-1.16,0.85-2.35,1.53-3.65,2.11c-1.94,0.86-4.14,1.49-6.62,1.89c-2.48,0.4-5.22,0.58-8.09,0.57
		c-2.95,0-6.02-0.18-9.13-0.39c-1.56-0.1-3.13-0.22-4.74-0.31c-1.61-0.09-3.24-0.16-4.99-0.16c-9.91,0-17.95,8.04-17.95,17.95
		c0,9.91,8.04,17.95,17.95,17.95v0c0.7,0,1.73,0.03,2.98,0.11c1.87,0.1,4.24,0.28,6.92,0.45c2.69,0.16,5.7,0.3,8.96,0.3
		c3.35,0,6.96-0.15,10.78-0.61c3.34-0.4,6.83-1.04,10.4-2.04c3.13-0.88,6.32-2.04,9.5-3.55c5.56-2.64,11.06-6.43,15.9-11.43
		c3.63-3.74,6.89-8.13,9.67-13.11c4.18-7.47,7.29-16.21,9.37-26.35c2.08-10.15,3.16-21.75,3.16-35.18c0-0.29,0-0.58,0-0.87v-0.02
		c-0.05-14.69-0.73-32.36-1.38-52.03c-0.65-19.66-1.28-41.3-1.28-63.67c0-27.24,0.94-55.57,3.87-82.57
		c2.19-20.25,5.51-39.74,10.29-57.4c3.58-13.25,7.97-25.45,13.23-36.18c3.94-8.05,8.36-15.27,13.24-21.54
		c3.67-4.71,7.59-8.89,11.8-12.54c6.32-5.48,13.27-9.78,21.19-12.93c7.93-3.14,16.87-5.12,27.28-5.64
		c9.5-0.47,16.88-8.24,17.04-17.61c0,0,0-0.01,0-0.01C1909.78,613.63,1909.76,613.43,1909.77,613.23z"/>
</g>
</svg>
