<svg id="Layer_1" data-name="Layer 1" style="height:80vw" xmlns="http://www.w3.org/2000/svg" viewBox="0 0 1913.96 863.32"><defs><style>.cls-1{fill:none;stroke:#000;stroke-miterlimit:10;stroke-width:17.32px;}</style></defs><title>lauztiniai-skliaustai</title><path class="cls-1" d="M174.27,239.79a20.19,20.19,0,0,1,4.57-4.32,19.94,19.94,0,0,1,3.64-2,28.36,28.36,0,0,1,6.63-1.75,54.06,54.06,0,0,1,8.09-.53c3,0,6,.16,9.13.36,1.56.09,3.13.2,4.74.28s3.24.15,5,.15C226,232,234,224.58,234,215.4s-8-16.61-17.95-16.61c-.7,0-1.73,0-3-.1-1.87-.09-4.24-.26-6.92-.41s-5.7-.28-9-.28a98.28,98.28,0,0,0-10.78.56,73.62,73.62,0,0,0-10.4,1.89,61.27,61.27,0,0,0-9.5,3.29,55.3,55.3,0,0,0-15.9,10.58A58.3,58.3,0,0,0,141,226.45a80.49,80.49,0,0,0-9.38,24.39,150.69,150.69,0,0,0-3.15,32.56v.82h0c.05,13.6.72,29.95,1.37,48.16s1.28,38.23,1.28,58.93c0,25.21-.94,51.43-3.87,76.42a327.14,327.14,0,0,1-10.28,53.13,178.87,178.87,0,0,1-13.23,33.48,112.48,112.48,0,0,1-13.24,19.94,84.49,84.49,0,0,1-11.81,11.61,74.61,74.61,0,0,1-21.19,12,90.67,90.67,0,0,1-27.28,5.22c-9.49.43-16.88,7.62-17,16.29v0c0,.18,0,.36,0,.55s0,.37,0,.55h0c.16,8.67,7.55,15.87,17,16.3a89.93,89.93,0,0,1,28.55,5.7,74.21,74.21,0,0,1,19.45,11.12A85.06,85.06,0,0,1,92.32,667.9c7.57,9.57,14,21.35,19.11,34.79,7.77,20.16,12.78,44,15.73,69.09s3.92,51.45,3.91,76.79c0,20.7-.63,40.73-1.28,58.93s-1.32,34.56-1.37,48.16v.82c0,16.5,1.88,30,5.53,41.35a69.13,69.13,0,0,0,11.35,21.89,55.56,55.56,0,0,0,12.23,11.43,56.32,56.32,0,0,0,10.35,5.57,66.75,66.75,0,0,0,15.47,4.2,93.2,93.2,0,0,0,13.85,1c4.35,0,8.26-.23,11.53-.43,1.63-.11,3.1-.2,4.35-.26s2.28-.1,3-.1c9.91,0,17.95-7.44,17.95-16.62s-8-16.61-17.95-16.61h0c-1.75,0-3.38.07-5,.15-2.41.13-4.75.29-7.06.42s-4.6.22-6.81.22a61.11,61.11,0,0,1-6.5-.32,37.38,37.38,0,0,1-5-.89,24.24,24.24,0,0,1-3.72-1.29,19.26,19.26,0,0,1-5.61-3.73,25,25,0,0,1-4.1-5.21,49.53,49.53,0,0,1-5.54-14.86,120.89,120.89,0,0,1-2.42-25.87v-.7c.05-12.69.7-28.9,1.36-47.19s1.3-38.7,1.3-60c0-26-1-53.31-4.09-80a357.05,357.05,0,0,0-11.31-58.21,210.78,210.78,0,0,0-15.64-39.43,146,146,0,0,0-17.16-25.74,119.67,119.67,0,0,0-16.62-16.29,109.6,109.6,0,0,0-12.94-8.95,112.35,112.35,0,0,0,12.26-8.4,120.32,120.32,0,0,0,19.83-19.95c10.13-12.84,17.88-27.5,23.95-43.26,9.08-23.64,14.41-49.81,17.59-76.63S167,417.41,167,391.31c0-21.32-.65-41.73-1.3-60s-1.31-34.49-1.36-47.18h0v-.7c0-14.14,1.66-24.55,4-31.84A36.81,36.81,0,0,1,174.27,239.79Z" transform="translate(-4.47 -189.34)"/><path class="cls-1" d="M1909.77,622.05c0-.18,0-.36,0-.54h0c-.16-8.67-7.54-15.87-17-16.3a89.87,89.87,0,0,1-28.54-5.7,74.27,74.27,0,0,1-19.46-11.12,85.43,85.43,0,0,1-14.15-14.28c-7.57-9.57-13.94-21.35-19.11-34.79-7.77-20.16-12.78-44-15.73-69.09s-3.91-51.45-3.91-76.79c0-20.7.63-40.73,1.28-58.93s1.32-34.56,1.37-48.16h0c0-.27,0-.54,0-.81,0-16.5-1.88-30-5.54-41.35a68.92,68.92,0,0,0-11.35-21.89,55.12,55.12,0,0,0-12.23-11.43,55.69,55.69,0,0,0-10.35-5.57,66.68,66.68,0,0,0-15.46-4.2,93.33,93.33,0,0,0-13.86-1c-4.34,0-8.26.23-11.53.43l-4.35.27c-1.24.06-2.27.09-3,.09-9.92,0-17.95,7.44-17.95,16.62s8,16.61,17.95,16.61h0c1.74,0,3.38-.07,5-.15,2.41-.13,4.75-.29,7.07-.42s4.59-.22,6.8-.22a61.11,61.11,0,0,1,6.5.32,35.28,35.28,0,0,1,5,.9,23.68,23.68,0,0,1,3.73,1.28,19.22,19.22,0,0,1,5.6,3.73,24.67,24.67,0,0,1,4.1,5.21,49,49,0,0,1,5.54,14.86,119.61,119.61,0,0,1,2.42,25.87v.72h0c0,12.68-.7,28.89-1.35,47.17s-1.3,38.71-1.3,60c0,26,.95,53.31,4.08,80a357,357,0,0,0,11.32,58.22A209.74,209.74,0,0,0,1787,571.07a145.17,145.17,0,0,0,17.16,25.75,119,119,0,0,0,16.61,16.29,110.55,110.55,0,0,0,13,8.95,111.53,111.53,0,0,0-12.27,8.4,120.25,120.25,0,0,0-19.82,19.95c-10.14,12.84-17.89,27.5-23.95,43.26-9.08,23.64-14.42,49.81-17.6,76.63s-4.12,54.29-4.12,80.39c0,21.32.64,41.73,1.3,60s1.31,34.49,1.35,47.17h0v.72c0,14.14-1.66,24.55-4,31.84a37,37,0,0,1-5.91,11.77,20.42,20.42,0,0,1-4.58,4.32,19.62,19.62,0,0,1-3.64,2,28.27,28.27,0,0,1-6.62,1.75,54.2,54.2,0,0,1-8.1.53c-3,0-6-.16-9.13-.36-1.56-.09-3.13-.2-4.74-.28s-3.24-.15-5-.15c-9.92,0-17.95,7.44-17.95,16.62s8,16.61,17.95,16.61h0c.7,0,1.73,0,3,.1,1.88.09,4.24.26,6.92.41s5.7.28,9,.28a98.15,98.15,0,0,0,10.78-.56,73.62,73.62,0,0,0,10.4-1.89,61.27,61.27,0,0,0,9.5-3.29,55.3,55.3,0,0,0,15.9-10.58,57.66,57.66,0,0,0,9.67-12.13,80.49,80.49,0,0,0,9.38-24.39,151.28,151.28,0,0,0,3.16-32.56c0-.27,0-.54,0-.81h0c0-13.6-.72-29.95-1.37-48.16s-1.28-38.23-1.28-58.93c0-25.21.94-51.43,3.87-76.42A326.06,326.06,0,0,1,1806,721.14a178.86,178.86,0,0,1,13.22-33.48,112,112,0,0,1,13.25-19.94,84.43,84.43,0,0,1,11.8-11.61,74.74,74.74,0,0,1,21.19-12,90.67,90.67,0,0,1,27.28-5.22c9.5-.43,16.88-7.62,17-16.29v0C1909.78,622.42,1909.76,622.24,1909.77,622.05Z" transform="translate(-4.47 -189.34)"/></svg>