<svg id="Layer_1" data-name="Layer 1" xmlns="http://www.w3.org/2000/svg" viewBox="0 0 2105 242.32" preserveAspectRatio="none"><defs><style>.cls-1{opacity:0.97;}.cls-2{opacity:0.98;}.cls-3{fill:#e5e5e5;}.cls-4{fill:#8dbbc6;}.cls-5{fill:#4592af;}</style></defs><title>navbar</title><g class="cls-1"><g class="cls-2"><path class="cls-3" d="M1920-.68v.23h0V221.24h0v11.9L360.35,204S218.18,12.41,200.61-.25C184.3-.22-185-.07-185,0V205l2105,36.43V-.68Z" transform="translate(185 0.9)"/></g><g class="cls-2"><path class="cls-4" d="M360.35,204,1920,233.14v-11.9L371.46,194.3S235.31,5.32,222.88,0C222.12-.33,1779.51-1,1920-.45V-.68c-132.67-.54-1515.72.05-1719.39.43C218.18,12.41,360.35,204,360.35,204Z" transform="translate(185 0.9)"/></g><g class="cls-2"><path class="cls-5" d="M222.88,0c12.43,5.32,148.58,194.3,148.58,194.3L1920,221.24V-.45C1779.51-1,222.12-.33,222.88,0Z" transform="translate(185 0.9)"/></g></g></svg>