<svg xmlns="http://www.w3.org/2000/svg" viewBox="0 0 2097.58 1066.3"><defs><style>.cls-1{fill:#f9f9f9;opacity:0.71;}.cls-2{fill:#fff;}.cls-14,.cls-3{fill:#34b378;}.cls-4{fill:#c5c4c6;}.cls-5{fill:#565656;}.cls-6{fill:#707070;}.cls-7{fill:#d7c9c8;}.cls-8{fill:#4c4c4c;}.cls-9{fill:#f2ac57;}.cls-10{fill:#f71e1e;}.cls-11{fill:#21f46c;}.cls-12{opacity:0.4;}.cls-13{fill:#d30b4e;}.cls-14{stroke:#02c12a;stroke-miterlimit:10;stroke-width:0.66px;}.cls-15{fill:#9d9e9d;}.cls-16{fill:#4592af;}</style></defs><title>pi_logo</title><g id="Layer_5" data-name="Layer 5"><path class="cls-1" d="M1838.43,491.56l-670.8-78.08a30.24,30.24,0,0,1-24.17-17.85L958-25.85a30.2,30.2,0,0,0-24.08-17.83L-12.73-156.55a30.24,30.24,0,0,0-33.78,28.83L-84.78,849.13A30.22,30.22,0,0,0-55,880.53l2037.1,29a30.22,30.22,0,0,0,28.37-41.74L1862.87,510.05A30.2,30.2,0,0,0,1838.43,491.56Z" transform="translate(84.8 156.76)"/><path class="cls-2" d="M934.94,15.07l194.37,404.61A30.22,30.22,0,0,0,1153,436.6L1813,515a30.21,30.21,0,0,1,24.17,18l134.94,312A30.22,30.22,0,0,1,1944,887.26L-21.39,860.56a30.22,30.22,0,0,1-29.8-30.87L-31.64-74.92A30.22,30.22,0,0,1,2-104.3L911.09-1.87A30.18,30.18,0,0,1,934.94,15.07Z" transform="translate(84.8 156.76)"/></g><g id="Layer_2" data-name="Layer 2"><rect class="cls-3" x="92.56" y="174.28" width="835.37" height="509.65" rx="35.77"/><rect class="cls-4" x="142.15" y="637.98" width="85.79" height="54.72" rx="8.98"/><rect class="cls-5" x="97.21" y="309.73" width="16.34" height="173.62"/></g><g id="Layer_3" data-name="Layer 3"><rect class="cls-4" x="725.3" y="196.91" width="237.96" height="161.15" rx="5.96"/><rect class="cls-4" x="750.83" y="382.33" width="212.43" height="135.4" rx="9.11"/><rect class="cls-4" x="750.83" y="545.83" width="212.43" height="123.9" rx="9.86"/><rect class="cls-5" x="131.91" y="193.95" width="528" height="38.35" rx="7.17"/><rect class="cls-6" x="490.84" y="331.72" width="162.96" height="118.3"/><rect class="cls-7" x="312.34" y="300.02" width="159.32" height="159.32" rx="16.5"/><rect class="cls-8" x="555.77" y="567" width="46.98" height="141.96" rx="16.34"/><rect class="cls-9" x="382.89" y="646.75" width="68.43" height="54.13" rx="12.9"/><rect class="cls-9" x="260.26" y="646.75" width="68.43" height="54.13" rx="13.97"/><circle class="cls-10" cx="102.74" cy="607.97" r="5.52"/><circle class="cls-11" cx="102.74" cy="596.93" r="5.52"/></g><g id="Layer_4" data-name="Layer 4"><g class="cls-12"><path class="cls-13" d="M102.71,406.3V369.85q11.82,0,11.82-9.57,0-8.76-9-8.76t-9.13,12v90.82h-39V367.81q0-13.43,2.54-22a45.14,45.14,0,0,1,8.7-16,49.07,49.07,0,0,1,17.3-13,50.64,50.64,0,0,1,21.43-4.78q20,0,33.59,14.25t13.6,35.33q0,20.47-12.21,33.19-11.15,11.71-33.63,11.71Z" transform="translate(84.8 156.76)"/><path class="cls-13" d="M209.67,315.38v139h-39v-139Z" transform="translate(84.8 156.76)"/></g><path class="cls-14" d="M13.09,761c9,5.85,24.87,12,40.07,12,22.11,0,32.47-11,32.47-24.8,0-14.46-8.64-22.39-31.09-30.65-30-10.68-44.21-27.21-44.21-47.19,0-26.87,21.76-48.91,57.68-48.91,16.93,0,31.78,4.83,41.11,10.34l-7.6,22a65.27,65.27,0,0,0-34.2-9.65c-18,0-28,10.34-28,22.73,0,13.78,10,20,31.78,28.25,29,11,43.87,25.49,43.87,50.29,0,29.27-22.8,49.94-62.52,49.94-18.31,0-35.24-4.48-47-11.37Z" transform="translate(84.8 156.76)"/><path class="cls-14" d="M170.93,714.11c.69,41,26.95,57.87,57.34,57.87,21.76,0,34.89-3.79,46.29-8.61l5.18,21.69c-10.71,4.83-29,10.34-55.61,10.34-51.47,0-82.21-33.76-82.21-84s29.7-89.9,78.41-89.9c54.57,0,69.08,47.88,69.08,78.53a115.32,115.32,0,0,1-1,14.12Zm89.12-21.69c.35-19.29-8-49.26-42.14-49.26-30.74,0-44.21,28.24-46.63,49.26Z" transform="translate(84.8 156.76)"/><path class="cls-14" d="M327,677.26c0-19.63-.34-36.51-1.38-52h26.6l1,32.72h1.39c7.6-22.38,25.9-36.51,46.28-36.51a32.89,32.89,0,0,1,8.64,1v28.58a45.78,45.78,0,0,0-10.37-1c-21.41,0-36.61,16.19-40.75,38.92a84.07,84.07,0,0,0-1.39,14.12V792H327Z" transform="translate(84.8 156.76)"/><path class="cls-14" d="M460.36,625.25l32.81,93.68a429.63,429.63,0,0,1,13.48,42.71h1c3.8-13.77,8.64-27.55,14.16-42.71l32.47-93.68h31.78L520.46,792h-29l-63.56-166.7Z" transform="translate(84.8 156.76)"/><path class="cls-14" d="M628.21,714.11c.69,41,26.95,57.87,57.34,57.87,21.77,0,34.89-3.79,46.29-8.61L737,785.06c-10.71,4.83-29,10.34-55.61,10.34-51.47,0-82.21-33.76-82.21-84s29.7-89.9,78.41-89.9c54.57,0,69.08,47.88,69.08,78.53a115.32,115.32,0,0,1-1,14.12Zm89.12-21.69c.35-19.29-7.94-49.26-42.14-49.26-30.74,0-44.21,28.24-46.63,49.26Z" transform="translate(84.8 156.76)"/><path class="cls-14" d="M784.32,677.26c0-19.63-.34-36.51-1.38-52h26.6l1,32.72H812c7.6-22.38,25.9-36.51,46.28-36.51a33,33,0,0,1,8.64,1v28.58a45.75,45.75,0,0,0-10.36-1c-21.42,0-36.62,16.19-40.76,38.92a85.19,85.19,0,0,0-1.38,14.12V792H784.32Z" transform="translate(84.8 156.76)"/><path class="cls-14" d="M1053.05,814c-19,10-38.34,13.77-61.49,13.77-56.65,0-104.66-41.33-104.66-107.46,0-70.95,49.4-132.26,126.08-132.26,60.1,0,100.52,42,100.52,99.54,0,51.67-29,82-61.49,82-13.82,0-26.6-9.3-25.56-30.3h-1.38c-12.09,20.32-28,30.3-48.7,30.3-20,0-37.31-16.18-37.31-43.39,0-42.71,33.85-81.63,81.86-81.63,14.86,0,28,3.1,37,7.23l-11.74,62.34c-5.18,26.18-1,38.24,10.36,38.58,17.62.34,37.31-23.08,37.31-63,0-49.95-30-85.76-83.59-85.76-56.31,0-103.63,44.43-103.63,114.35,0,57.51,37.65,93,88.77,93,19.69,0,38-4.13,52.16-12Zm-19-148.79a59.63,59.63,0,0,0-17.27-2.41c-30.4,0-54.92,28.58-54.92,62,0,15.15,7.6,26.18,22.8,26.18,20,0,38.34-25.49,42.14-46.84Z" transform="translate(84.8 156.76)"/><path class="cls-14" d="M1151.81,679.67c0-21.35-.69-38.58-1.38-54.42h27.29l1.38,28.59h.69c12.44-20.32,32.13-32.38,59.42-32.38,40.41,0,70.81,34.1,70.81,84.73,0,59.93-36.62,89.55-76,89.55-22.1,0-41.44-9.64-51.46-26.18h-.69v90.59h-30.06Zm30.06,44.43a68.14,68.14,0,0,0,1.38,12.4c5.52,21,23.83,35.48,45.59,35.48,32.13,0,50.78-26.18,50.78-64.41,0-33.41-17.62-62-49.74-62-20.73,0-40.07,14.81-45.94,37.54a48.9,48.9,0,0,0-2.07,12.4Z" transform="translate(84.8 156.76)"/><path class="cls-14" d="M1382.19,578.41c.34,10.33-7.26,18.6-19.35,18.6-10.71,0-18.31-8.27-18.31-18.6a18.5,18.5,0,0,1,19-18.95C1374.93,559.46,1382.19,567.73,1382.19,578.41ZM1348.33,792V625.25h30.4V792Z" transform="translate(84.8 156.76)"/><path class="cls-15" d="M1421.9,652.8c0-12.74,8.63-21.69,20.73-21.69s20,8.95,20.37,21.69c0,12.06-7.94,21.36-20.72,21.36C1430.19,674.16,1421.9,664.86,1421.9,652.8Zm0,121.59c0-12.75,8.63-21.7,20.73-21.7s20,8.95,20.37,21.7c0,12.05-7.94,21.35-20.72,21.35C1430.19,795.74,1421.9,786.44,1421.9,774.39Z" transform="translate(84.8 156.76)"/><path class="cls-16" d="M1492.35,719.63c-1.38-34.45,17.27-52,41.11-52,14.5,0,25.56,4.47,48.7,15.49,17.62,8.27,30.4,14.47,43.18,14.47,12.43,0,18.3-10,18.65-28.93h20.73c1.72,38.57-18.31,52-39.73,52-13.81,0-26.25-4.14-50.08-15.16-16.24-7.92-29-15.15-41.45-15.15s-20,8.61-20.73,29.28Z" transform="translate(84.8 156.76)"/><path class="cls-16" d="M1756.58,821.57V786.79c-20-.35-40.76-6.55-52.85-15.16l8.29-23.08a92.23,92.23,0,0,0,49.74,14.82c24.52,0,41.1-14.12,41.1-33.76,0-18.94-13.47-30.65-39-41-35.23-13.78-57-29.62-57-59.59,0-28.59,20.38-50.29,52.15-55.46V538.8h21.42v33.41c20.73.69,34.89,6.2,44.9,12L1816.68,607a83.6,83.6,0,0,0-43.52-11.71c-26.6,0-36.62,15.84-36.62,29.62,0,17.91,12.78,26.86,42.83,39.26,35.58,14.47,53.54,32.38,53.54,63,0,27.21-19,52.7-54.57,58.56v35.81Z" transform="translate(84.8 156.76)"/></g></svg>